<?xml version="1.0" encoding="iso-8859-1"?>
<!-- Generator: Adobe Illustrator 19.0.0, SVG Export Plug-In . SVG Version: 6.00 Build 0)  -->
<svg version="1.1" id="Capa_1" xmlns="http://www.w3.org/2000/svg" xmlns:xlink="http://www.w3.org/1999/xlink" x="0px" y="0px"
	 viewBox="0 0 512 512" style="enable-background:new 0 0 512 512;" xml:space="preserve">
<path style="fill:#B4EBFA;" d="M176,375.5L176,375.5c-26.51,0-48-21.49-48-48v-240h96v240C224,354.01,202.51,375.5,176,375.5z"/>
<g>
	<rect x="128" y="199.5" style="fill:#83DDF2;" width="96" height="16"/>
	<rect x="128" y="87.5" style="fill:#83DDF2;" width="24" height="144"/>
	<rect x="128" y="87.5" style="fill:#83DDF2;" width="96" height="16"/>
</g>
<path style="fill:#F5C346;" d="M176,375.5L176,375.5c-26.51,0-48-21.49-48-48v-96h96v96C224,354.01,202.51,375.5,176,375.5z"/>
<path style="fill:#D69627;" d="M152,327.5v-96h-24v96c0,26.51,21.49,48,48,48c4.235,0,8.089-0.554,12-1.583
	C167.425,368.501,152,349.775,152,327.5z"/>
<rect x="112" y="55.5" style="fill:#B4EBFA;" width="128" height="32"/>
<g>
	<rect x="112" y="71.5" style="fill:#83DDF2;" width="128" height="16"/>
	<rect x="112" y="55.5" style="fill:#83DDF2;" width="40.5" height="32"/>
</g>
<rect x="272" y="55.5" style="fill:#B4EBFA;" width="128" height="32"/>
<g>
	<rect x="272" y="71.5" style="fill:#83DDF2;" width="128" height="16"/>
	<rect x="272" y="55.5" style="fill:#83DDF2;" width="40.5" height="32"/>
</g>
<path style="fill:#B4EBFA;" d="M336,375.5L336,375.5c-26.51,0-48-21.49-48-48v-240h96v240C384,354.01,362.51,375.5,336,375.5z"/>
<g>
	<rect x="288" y="199.5" style="fill:#83DDF2;" width="96" height="16"/>
	<rect x="288" y="87.5" style="fill:#83DDF2;" width="24" height="176"/>
	<rect x="288" y="87.5" style="fill:#83DDF2;" width="96" height="16"/>
</g>
<path style="fill:#82E8DF;" d="M336,375.5L336,375.5c-26.51,0-48-21.49-48-48v-64h96v64C384,354.01,362.51,375.5,336,375.5z"/>
<path style="fill:#0DB5AF;" d="M312,327.5v-64h-24v64c0,26.51,21.49,48,48,48c4.235,0,8.089-0.554,12-1.583
	C327.425,368.501,312,349.775,312,327.5z"/>
<rect x="64" y="199.5" style="fill:#D7D7D7;" width="32" height="256"/>
<rect x="64" y="199.5" style="fill:#828282;" width="32" height="16"/>
<rect x="416" y="199.5" style="fill:#D7D7D7;" width="32" height="256"/>
<g>
	<rect x="416" y="199.5" style="fill:#828282;" width="32" height="16"/>
	<rect x="32" y="151.5" style="fill:#828282;" width="448" height="48"/>
</g>
<path d="M455,448.5v-241h32v-63h-96v-49h16v-47H264v47h16v49h-49v-25h-15v25h-81v-49h112v-47H104v47h16v49H24v63h32v241H0v15h512
	v-15H455z M279,80.5v-17h113v17H279z M376,95.5v49h-81v-49H376z M119,80.5v-17h113v17H119z M39,192.5v-33h433v33H39z M295,256.5v-49
	h81v120c0,22.332-18.168,40.5-40.5,40.5S295,349.832,295,327.5v-56h57v-15H295z M135,224.5v-17h81v17H135z M216,239.5v88
	c0,22.332-18.168,40.5-40.5,40.5S135,349.832,135,327.5v-88H216z M408,448.5H103v-33h305V448.5z M408,400.5H103v-169H88v217H71v-241
	h49v120c0,30.603,24.897,55.5,55.5,55.5s55.5-24.897,55.5-55.5v-120h49v120c0,30.603,24.897,55.5,55.5,55.5s55.5-24.897,55.5-55.5
	v-120h17V400.5z M440,448.5h-17v-241h17V448.5z"/>
<g>
	<rect x="192" y="256" style="fill:#FFFFFF;" width="16" height="15"/>
	<rect x="160" y="320" style="fill:#FFFFFF;" width="16" height="15"/>
	<rect x="320" y="320" style="fill:#FFFFFF;" width="16" height="15"/>
</g>
<g>
</g>
<g>
</g>
<g>
</g>
<g>
</g>
<g>
</g>
<g>
</g>
<g>
</g>
<g>
</g>
<g>
</g>
<g>
</g>
<g>
</g>
<g>
</g>
<g>
</g>
<g>
</g>
<g>
</g>
</svg>
